<svg xmlns="http://www.w3.org/2000/svg" viewBox="0 0 240 50" width="100%" height="100%">
  <defs>
    <linearGradient id="goldClassic" x1="0%" y1="0%" x2="100%" y2="100%">
      <stop offset="0%" stop-color="#FFE28A" />
      <stop offset="45%" stop-color="#F2CA50" />
      <stop offset="100%" stop-color="#A6730C" />
    </linearGradient>
  </defs>

  <g transform="translate(6, 6)">
    <!-- Base / Sombra del Libro -->
    <path d="M 4 34 C 12 31, 18 33, 22 36 C 26 33, 32 31, 40 34 L 40 37 C 32 34, 26 36, 22 39 C 18 36, 12 34, 4 37 Z" fill="#7A560B" opacity="0.6"/>
    
    <!-- Hojas del Libro -->
    <path d="M 4 16 C 12 12, 18 14, 22 18 L 22 33 C 18 29, 12 27, 4 31 Z" fill="url(#goldClassic)" opacity="0.95"/>
    <path d="M 40 16 C 32 12, 26 14, 22 18 L 22 33 C 26 29, 32 27, 40 31 Z" fill="url(#goldClassic)" opacity="0.8"/>
    
    <!-- Cinta Separadora / Marcador -->
    <path d="M 22 18 L 22 32 L 26 28 L 30 32 L 30 15" fill="none" stroke="#FFE28A" stroke-width="2" stroke-linecap="round" stroke-linejoin="round"/>
  </g>

  <text x="56" y="33" font-family="'Manrope', system-ui, sans-serif" font-weight="800" font-size="23" letter-spacing="-0.3">
    <tspan fill="#FFFFFF">App</tspan><tspan fill="url(#goldClassic)">joteca</tspan>
  </text>
</svg>
